/* XPM */
static char *_522fa468b54481da399334a6932a490[] = {
/* columns rows colors chars-per-pixel */
"16 16 192 2 ",
"   c #695E13",
".  c #6D5F13",
"X  c #6C5F14",
"o  c #6D6112",
"O  c #6C6113",
"+  c #6E6013",
"@  c #6E6113",
"#  c #6F6213",
"$  c #6B6114",
"%  c #6D6114",
"&  c #6D6214",
"*  c #6F6214",
"=  c #6E6518",
"-  c #726611",
";  c #706513",
":  c #706214",
">  c #706314",
",  c #716314",
"<  c #746315",
"1  c #716414",
"2  c #716514",
"3  c #716415",
"4  c #726514",
"5  c #736514",
"6  c #746715",
"7  c #736D16",
"8  c #766D15",
"9  c #796C13",
"0  c #7C6F13",
"q  c #7A6C15",
"w  c #786E16",
"e  c #796E16",
"r  c #7C6D15",
"t  c #7D6E16",
"y  c #7D6F16",
"u  c #7E6F16",
"i  c #726818",
"p  c #776919",
"a  c #78681A",
"s  c #7E7313",
"d  c #7B7015",
"f  c #787117",
"g  c #7A7017",
"h  c #7F7016",
"j  c #76701D",
"k  c #7F7118",
"l  c #7F7219",
"z  c #7A7518",
"x  c #7E7919",
"c  c #7B6820",
"v  c #7C6821",
"b  c #817214",
"n  c #807016",
"m  c #807116",
"M  c #817116",
"N  c #807117",
"B  c #817216",
"V  c #807317",
"C  c #827317",
"Z  c #837515",
"A  c #837417",
"S  c #847516",
"D  c #847417",
"F  c #847517",
"G  c #857517",
"H  c #847617",
"J  c #857617",
"K  c #867617",
"L  c #877717",
"P  c #847913",
"I  c #867816",
"U  c #877F17",
"Y  c #8A7C17",
"T  c #8B7F16",
"R  c #8D7F16",
"E  c #807219",
"W  c #837419",
"Q  c #82771B",
"!  c #867818",
"~  c #877818",
"^  c #857B1B",
"/  c #897918",
"(  c #887A18",
")  c #897A18",
"_  c #8A7A18",
"`  c #88781B",
"'  c #897D19",
"]  c #8A7C19",
"[  c #8B791C",
"{  c #8C7C1C",
"}  c #8F7D1E",
"|  c #917F1A",
" . c #827A22",
".. c #817C21",
"X. c #8E7920",
"o. c #8A7C21",
"O. c #927D25",
"+. c #8F8116",
"@. c #8D8217",
"#. c #86811B",
"$. c #87821B",
"%. c #87841E",
"&. c #898018",
"*. c #8B801A",
"=. c #8E811F",
"-. c #8B871F",
";. c #958017",
":. c #958814",
">. c #9B8D16",
",. c #94811E",
"<. c #99861B",
"1. c #978B18",
"2. c #92891F",
"3. c #97881C",
"4. c #9A8D1A",
"5. c #94901F",
"6. c #9F931B",
"7. c #9D951C",
"8. c #9F951C",
"9. c #A59A15",
"0. c #AA9E14",
"q. c #AE9E16",
"w. c #B49A1F",
"e. c #B1A016",
"r. c #B8AB16",
"t. c #B9AC17",
"y. c #B7AD1C",
"u. c #BDB017",
"i. c #888126",
"p. c #8B872D",
"a. c #918124",
"s. c #9E8222",
"d. c #928D26",
"f. c #90822F",
"g. c #9B9621",
"h. c #9C9623",
"j. c #9B9127",
"k. c #98952D",
"l. c #9F9828",
"z. c #A59423",
"x. c #A09A28",
"c. c #B49F37",
"v. c #B99C30",
"b. c #A7A225",
"n. c #AFA123",
"m. c #AAA326",
"M. c #AEA027",
"N. c #A3A029",
"B. c #ACA72C",
"V. c #B2A225",
"C. c #B4AB24",
"Z. c #B8AA27",
"A. c #BAAB2F",
"S. c #B5B028",
"D. c #BBB22B",
"F. c #BEB129",
"G. c #BFB42F",
"H. c #AFA436",
"J. c #A5A23B",
"K. c #B2A233",
"L. c #B2AD33",
"P. c #BAA238",
"I. c #C9BD15",
"U. c #C3B418",
"Y. c #C2B51B",
"T. c #C0AF2D",
"R. c #C6AF2D",
"E. c #CBBD28",
"W. c #CAAC32",
"Q. c #C4B635",
"!. c #C6B63E",
"~. c #DACD16",
"^. c #D3C81D",
"/. c #D2CA24",
"(. c #D9CE2B",
"). c #C9C037",
"_. c #C9C139",
"`. c #D5C937",
"'. c #D1C639",
"]. c #E4D824",
"[. c #E0D737",
"{. c #EBE13B",
"}. c #ECE23D",
"|. c #B7AF45",
" X c #BBA944",
".X c #CBB548",
"XX c #CFC347",
"oX c #CDC746",
"OX c #DFD549",
"+X c #DDC950",
"@X c #E1C740",
"#X c None",
/* pixels */
"#X#X#X#X#Xe d @.U g.h.#X#X#X#X#X",
"#X#X#X*.P ; 4 # # 8 9 N X.#X#X#X",
"#X#X8 s # u n K.j.N u > < v #X#X",
"#XZ.+.> N L W G.Q.d _ K 4 O. X#X",
"#X>.* W V.Z u n.}.o./ Y K > H.#X",
"Q 0 6 7.Y.q.R (.'.n / Y _ u i.J.",
"' ; +.e.I.~.t.E.`.W N I Y K = k.",
"1.* I Z 0.r.U.].[.oX|.o.K I # i.",
"6., ^ u :.u.^./.).XX+X.Xa.K # 5.",
"b.e D u 9.y.C.F.T.@XP.!.OXe # x.",
"B.<.e R *.2.n.R.,.{ F.A.c.; f L.",
"#Xw.4 d ^ l [ W.3.u | z.{.$ S.#X",
"#Xv.s.# _ a.N Y K ;.4.N } m._.#X",
"#X#Xc a p ' N L Z 6.N * x l.#X#X",
"#X#X#Xf. .j i # * * 7 $.x.#X#X#X",
"#X#X#X#X#Xp...f %.%.d.#X#X#X#X#X"
};
