/* XPM */
static char *_67f767929c24729b0067b8505d446d1[] = {
/* columns rows colors chars-per-pixel */
"64 64 256 2 ",
"   c #5E5511",
".  c #59500F",
"X  c #655B11",
"o  c #6A5E12",
"O  c #625610",
"+  c #6C650E",
"@  c #73690E",
"#  c #6D6113",
"$  c #6E6A13",
"%  c #726514",
"&  c #756A14",
"*  c #7B6D15",
"=  c #756D19",
"-  c #7C6B1A",
";  c #726418",
":  c #757015",
">  c #7E7115",
",  c #7C741A",
"<  c #7E7A1B",
"1  c #7E7817",
"2  c #7B700F",
"3  c #6E6724",
"4  c #746B27",
"5  c #777036",
"6  c #816D19",
"7  c #837416",
"8  c #867916",
"9  c #887916",
"0  c #847618",
"q  c #857919",
"w  c #8B7C19",
"e  c #8A7618",
"r  c #907B1C",
"t  c #847C22",
"y  c #8C7E22",
"u  c #837326",
"i  c #987F23",
"p  c #8A7B3B",
"a  c #8D8215",
"s  c #8A831C",
"d  c #8D891C",
"f  c #878218",
"g  c #928514",
"h  c #968B14",
"j  c #9B8D16",
"k  c #92841B",
"l  c #9B841B",
"z  c #938B1C",
"x  c #9C8C1A",
"c  c #9C8616",
"v  c #9E9315",
"b  c #96921F",
"n  c #9C941D",
"m  c #9F981C",
"M  c #A58D19",
"N  c #A08817",
"B  c #A29515",
"V  c #A59B15",
"C  c #AB9D15",
"Z  c #A3941A",
"A  c #A59C1C",
"S  c #AB9B1A",
"D  c #AD951B",
"F  c #ADA215",
"G  c #ADA41C",
"H  c #B2A416",
"J  c #B5A916",
"K  c #BBAD16",
"L  c #B4A31B",
"P  c #B3AA1B",
"I  c #BBAC1B",
"U  c #B9A41C",
"Y  c #BCB115",
"T  c #BCB21B",
"R  c #B7B01C",
"E  c #858122",
"W  c #8E8B2B",
"Q  c #8B8527",
"!  c #938324",
"~  c #9C8423",
"^  c #948B21",
"/  c #9C8B22",
"(  c #948A2A",
")  c #998A2A",
"_  c #969123",
"`  c #9B9421",
"'  c #9D9922",
"]  c #9C942D",
"[  c #9D992C",
"{  c #95922B",
"}  c #988E3C",
"|  c #9D9839",
" . c #A58D24",
".. c #A68926",
"X. c #A49625",
"o. c #AA9324",
"O. c #A49C24",
"+. c #AA9D25",
"@. c #AD9B29",
"#. c #A5982C",
"$. c #B49D2A",
"%. c #B59729",
"&. c #A39D33",
"*. c #A99A3A",
"=. c #B79B30",
"-. c #A6A224",
";. c #ABA424",
":. c #AEA924",
">. c #ABA52B",
",. c #ADA82F",
"<. c #B3AC24",
"1. c #BAAE23",
"2. c #B3A42A",
"3. c #BAA42B",
"4. c #B6AB2A",
"5. c #BDAB2B",
"6. c #B6A323",
"7. c #B6B126",
"8. c #BCB324",
"9. c #BCB12C",
"0. c #BEBA2A",
"q. c #BBB528",
"w. c #ACA434",
"e. c #ADA73A",
"r. c #B4A133",
"t. c #BAA43A",
"y. c #B8A837",
"u. c #B5B136",
"i. c #C3B516",
"p. c #C4B915",
"a. c #CBBE16",
"s. c #C3B31B",
"d. c #C4BA1B",
"f. c #CABC1C",
"g. c #C9B71E",
"h. c #C1AE19",
"j. c #C39E2B",
"k. c #C5A32A",
"l. c #C3AB2C",
"z. c #CAA82A",
"x. c #D2AE29",
"c. c #C4BC24",
"v. c #CBBD24",
"b. c #C2B42C",
"n. c #CBB32E",
"m. c #C4BC2C",
"M. c #CBBC2C",
"N. c #C3B422",
"B. c #D3B52D",
"V. c #D1BC2F",
"C. c #D8B827",
"Z. c #C5AC36",
"A. c #CBBC33",
"S. c #C4B33B",
"D. c #C4BC3D",
"F. c #CCBD3B",
"G. c #C6B736",
"H. c #D3B533",
"J. c #D7BB33",
"K. c #CDC115",
"L. c #CCC21B",
"P. c #D3C515",
"I. c #D5C816",
"U. c #D8CC16",
"Y. c #D2C51B",
"T. c #D8CD1C",
"R. c #DDD116",
"E. c #DDD21C",
"W. c #E2D61C",
"Q. c #E3D616",
"!. c #CDC423",
"~. c #CCC32D",
"^. c #C9C32B",
"/. c #D2CB2D",
"(. c #D6CA26",
"). c #DCD22B",
"_. c #DED426",
"`. c #CBC234",
"'. c #CCC33C",
"]. c #CCC73A",
"[. c #D2C533",
"{. c #D4CC32",
"}. c #DACD33",
"|. c #D2C33C",
" X c #D4CA3C",
".X c #DACC3C",
"XX c #DCC33C",
"oX c #D6D131",
"OX c #DDD432",
"+X c #DFD832",
"@X c #DDD23C",
"#X c #E3C729",
"$X c #E0D423",
"%X c #E4D924",
"&X c #E3D32B",
"*X c #E5DA2E",
"=X c #E9DB2D",
"-X c #E3C73E",
";X c #E8DD35",
":X c #E2D73C",
">X c #E5DA3B",
",X c #E6DA37",
"<X c #F2DF3B",
"1X c #EBE22F",
"2X c #ECE233",
"3X c #EDE23B",
"4X c #F1E038",
"5X c #9B9748",
"6X c #8E8746",
"7X c #A39649",
"8X c #AC9541",
"9X c #A8A54B",
"0X c #B5AD43",
"qX c #BCB749",
"wX c #B8B345",
"eX c #B9AB55",
"rX c #C5B745",
"tX c #D4BC43",
"yX c #C5B64C",
"uX c #CDC344",
"iX c #CDC54C",
"pX c #CCC84C",
"aX c #D2C443",
"sX c #D3CC44",
"dX c #D9CB44",
"fX c #D4C54A",
"gX c #DAC84A",
"hX c #D5D143",
"jX c #DCD243",
"kX c #DBD44A",
"lX c #D7D14B",
"zX c #CFC852",
"xX c #D3C751",
"cX c #D2C955",
"vX c #DCCA54",
"bX c #D4CA5A",
"nX c #DBCB5B",
"mX c #E7CB47",
"MX c #E0D743",
"NX c #E5DC42",
"BX c #E8DF45",
"VX c #E9D64B",
"CX c #F1D548",
"ZX c #E3CE5B",
"AX c #E5CD53",
"SX c #EBD656",
"DX c #F4DF5E",
"FX c #ECE242",
"GX c #EBE24C",
"HX c #F2E454",
"JX c #F3E35A",
"KX c #EFE550",
"LX c #F3DA62",
"PX c #F2D765",
"IX c #EED461",
"UX c None",
/* pixels */
"UXUXUXUXUXUXUXUXUXUXUXUXUXUXUXUXUXUXUXUXUXUXUXUXUXUXUXUXUXUXUXUXUXUXUXUXUXUXUXUXUXUXUXUXUXUXUXUXUXUXUXUXUXUXUXUXUXUXUXUXUXUXUXUX",
"UXUXUXUXUXUXUXUXUXUXUXUXUXUXUXUXUXUXUXUXUXUXUXUXUX5 3 ( X.8 h b z n b s u.0X5XUXUXUXUXUXUXUXUXUXUXUXUXUXUXUXUXUXUXUXUXUXUXUXUXUX",
"UXUXUXUXUXUXUXUXUXUXUXUXUXUXUXUXUXUXUXUXUXUX} : x 7 C @ 1.: c.c.8 ).f f 1Xf 8.b A.| UXUXUXUXUXUXUXUXUXUXUXUXUXUXUXUXUXUXUXUXUXUX",
"UXUXUXUXUXUXUXUXUXUXUXUXUXUXUXUXUXUXUX5 & > @ 2 8 + h w T z g O.b G 8.1 8.f 1Xf M k N. .7XUXUXUXUXUXUXUXUXUXUXUXUXUXUXUXUXUXUXUX",
"UXUXUXUXUXUXUXUXUXUXUXUXUXUXUXUXUX5X+ g @ S * j a j 9 7 & # X O O # + , z ` Z v.c > > 6.2 e 7XUXUXUXUXUXUXUXUXUXUXUXUXUXUXUXUXUX",
"UXUXUXUXUXUXUXUXUXUXUXUXUXUXUX3 7 h.a 9 j a 9 & X X # # % % & & - % % % + o o o w D g M 7 e 6 %.UXUXUXUXUXUXUXUXUXUXUXUXUXUXUXUX",
"UXUXUXUXUXUXUXUXUXUXUXUXUXUX4 s.7 F I 9 8 X X # @ = * > > 7 > e 7 7 7 > > * & % + X o r r N 0 o.* 8XUXUXUXUXUXUXUXUXUXUXUXUXUXUX",
"UXUXUXUXUXUXUXUXUXUXUXUX4 z 2 v 9 L 7 X o @ * > 7 7 w 7 w 8 w 8 w 8 w q q 7 e 7 6 * @ o o e l e & ..- UXUXUXUXUXUXUXUXUXUXUXUXUX",
"UXUXUXUXUXUXUXUXUXUXUXUXB 2 a h c # X & * 7 7 w 8 w 9 w 9 w 9 9 8 w 8 w 9 w 9 w 7 w > > % o o ..6 6 - ~ 6XUXUXUXUXUXUXUXUXUXUXUX",
"UXUXUXUXUXUXUXUXUXUX} + 8 g B 1 X % * > q 7 w 8 w 9 w 9 w 9 7 > 7 e w 8 w 9 w 9 w 9 w 7 7 & % X 6 ..; - ..p UXUXUXUXUXUXUXUXUXUX",
"UXUXUXUXUXUXUXUXUX4 a > S S # # & > 7 w 9 w 9 w 9 w 9 w 9 e >.hXD.k 7 w 9 w 9 w 9 w 7 w 9 e > & o ; r i - ~ p UXUXUXUXUXUXUXUXUX",
"UXUXUXUXUXUXUXUXW + Z g C o # & 7 7 w 9 w 9 w 9 w 9 w 8 q >  XdXdX#.q 9 w 9 w 9 w 9 w 9 w 7 9 7 6 o ; i i j.6 UXUXUXUXUXUXUXUXUX",
"UXUXUXUXUXUXUXUXv.I 2 G o # * 7 7 w 9 w 9 w 9 w 9 w 9 w Z 9..X.XdXG.> w 9 w 9 w 9 w 9 w 9 w 9 w 6 6 + o i u %.Z.UXUXUXUXUXUXUXUX",
"UXUXUXUXUXUXUX<.g.s.L o % * e 7 w 9 w 9 w 9 w 9 w 9 w 8 s / .X.X@X|.+.7 w 9 w 9 w 9 w 9 w 9 w 9 e 7 6 # ; t.S.F.0XUXUXUXUXUXUXUX",
"UXUXUXUXUXUX*.v.g.I + # * q 8 w 9 w 9 w 9 w 9 w 9 w 9 w 0 w .X:X:Xy.* q 9 w 9 w 9 w 9 w 9 w 9 w 9 9 7 * o ; H.F.aXeXUXUXUXUXUXUX",
"UXUXUXUXUXUXg.s.h.7 # & e 7 w 8 w 7 w 9 w 9 w 9 w 9 w 8 w > +.>X<XFX2.> w 7 w 9 w 9 w 9 w 9 w 9 9 9 e 7 - o y aXgXdXUXUXUXUXUXUX",
"UXUXUXUXUXz v T j X % 0 7 w 9 w 7 r o.9 9 w 9 w 9 w 9 w 9 7 Z 3X3XFXFX.Xw w 9 w 9 w 9 w 9 w 9 w 9 w 9 w > & X r.aXe.pXUXUXUXUXUX",
"UXUXUXUX7X8 h.U X % 7 7 w 9 w 7 s V.;.* w 9 w 9 w 9 w 9 w k 2X4X3XFXFXVXr.7 w 9 w 9 w 9 w 9 w 9 9 9 w 9 q * % # dX&.uXUXUXUXUXUX",
"UXUXUXUX* I I 8 o > 7 w 9 w 7 ! M.v.8.s > 8 8 w 9 w 9 w 0 +.1X4X3XNXNXkXu.7 9 w 9 w 9 w 9 r 9 w 9 w 9 w 8 e * o { sX&.pXUXUXUXUX",
"UXUXUXp a I L X % > w 9 w 9 7 6.c.v.!.L.I 7 w 9 w 9 w 9 0 8.;X;X>XMXjXdXw.7 w 9 w 9 w 9 w 9 w 9 w 9 w 9 w 7 7 % o lXe.rXUXUXUXUX",
"UXUXUX% U I 7 # * q 9 w 9 7 z 8.8.d.f.p.f.h.0 w 9 w 9 e * /.*X:X@XjXhXsX! q 9 w 9 w 9 w 9 w 9 w 9 w 9 w 9 w 7 * o { lX[ rXUXUXUX",
"UXUXUXg P U X % 7 7 w 9 w 7 1.T T s.s.g.a.K.K 6 9 0 0 & 1.*X&XOX@X XaXaXq 9 w 9 w w w 9 w 9 w 9 w 9 w 9 w 9 w > $ $ kXe.hXUXUXUX",
"UXUX| B @ g X * 7 w 8 w 7 k R R T Y h.g.K.U.Q.c 0 j T.(.$X}.}.}. X XaXrX7 9 9 w 9 w 9 w 9 w 9 w 9 w 9 w 9 w 9 e : o u.hXuX9XUXUX",
"UXUX& w L & % > 9 8 w 8 1 G P U J I h.f.I.R.Q.K * J W.$X_.(.[.[.|.'.aXD.7 9 w 9 w 9 w 9 w 9 w 9 w 9 w 9 w 9 w 9 > # = W E e.UXUX",
"UXUXS j j X % 7 q w 8 e a F H H J K p.P.U.Q.Q.U.v J Y K.c.!.`.[.A.|.dXF.> w 9 w 8 w 9 w 9 w 9 w 9 w 9 w 9 w 9 w 7 &   u.w.u.UXUX",
"UX6Xg 2 x X * 7 w 9 q 1 B D C H K h.a.P.U.R.R.R.P.J w 2 6.v.M.`. X X@XjX7 q w 9 w 8 w 9 w 9 w 9 w 9 w 9 w 9 w 9 e & o E _ { UXUX",
"UX4 7 j 9 # * w 9 w 7 a V C C H h i.a.I.P.U.I.P.K.g g h.v.v.M.~.{.:X>XFXs q 9 w q w w w 9 w 9 w 9 w 9 w 9 w 9 w 7 > o , q._ 5XUX",
"UXt L v 7 o > 7 w 9 e g V C J F g p.a.K.K.K.K.K.p.H a.f.f.v.~.}.:X,XBXBX#.> 7 7 e 7 w q w 9 w 9 w 9 w 9 w 9 w 9 q * + X Q _ | UX",
"UXq 8 A % % > w 9 w 7 7 g C 7 * F p.p.p.p.p.p.Y s.i.s.d.f.(.).*X;X>XBXBXF.w.rX0Xe.W > q 9 w 8 w 9 w 9 w 9 w 9 w q 7 #   < 1 [ UX",
"UXs P B # % 7 8 w 9 w 9 7 7 e 7 g Y Y Y Y Y Y Y Y h.s.f.Y.E.%X*X;X>X>XMXkXlXlXcXzXbXyX( 7 8 w 8 w 9 w 9 w 9 w 9 w > & . b _ [ UX",
"UXa n S X & 7 w 9 w 9 w 9 w 9 9 g J J J H J J J K h.d.I.W.W.=X*X+X>X@XhXsXlXpXzXcXbXbXbX*.7 8 w 9 w 9 w 8 w 8 w 8 7 @ # ' ' ' UX",
"UXA Z N.X % e 7 w 9 w 9 w 9 w 7 g F C F F F H J K d.P.T.W.%X%X&X+X@X XsXfXpXpXzXbXbXbXnXZX8Xe 9 w 9 w 9 w 8 w e w 7 $ O 1 < O.UX",
"UX8 h 1.O & 7 w 9 w 9 w 9 w 9 9 7 V V V V V F J Y L.T.E.E.%X_.).oX{.].uXuXiXiXxXxXvXnXnXZXZX*.6 8 9 9 w 9 w 9 w 9 7 & X 1 f ;.UX",
"UXs A R o % e 7 w 9 w 9 w 9 w 7 7 v v v V F P Y L.Y.Y.T.T.T.(.(.~.].'.uXpXiXiXxXxXvXvXZXyX8XIX) 7 9 w 9 w 9 w 9 w 7 & O ' q.[ UX",
"UX7.8.m + = 7 w 9 w 9 w 9 w 9 9 2 v v v V J Y L.L.L.L.!.!.(.!.^.`.`.'.D.uXiXaXfXvXvXAXZXZ.6 PXPXQ 0 9 w 9 w 9 w 7 0 % # ' -.,.UX",
"UXE G ;., # 7 7 w 9 w 9 w 9 w 7 7 h j V F J Y L.L.L.L.c.L.^.^.^.^.D.D.'.tXaXgXgXgXAXAXZX) u PXPXLXt.w 7 w 9 w 9 w > % o m ' u.UX",
"UXW 1.G z # > w 9 w 9 w 9 w 9 w 2 h B F J Y T T T d.8.0.8.N.0.b.m.A.'.F.|.aXmXgXAXAXAXvX& rXLXDXDXJXHX! e w 9 w 7 > # $ 0.:.wXUX",
"UX} *X7.A o > 7 w 9 w 9 w 9 w 9 > h V F J J T T R R 7.R 7.9.9.b.m.A.F.|.|.aXXXmXmXmXCX..6 gXJXHXHXKXGX] q 8 w 9 q : # f ' 7.0XUX",
"UXUXR 0.8.X & q 9 w 9 w 9 9 9 9 2 1 F F P P P P P :.<.:.:.4.9.9.n.A.l.3.J.-XmXmXmXSXtX6 r r.KXKXKXGXvX) 7 w 9 w 7 * X b _ 7.UXUX",
"UXUX^.m <.o & 7 9 9 r 9 s 8 8 > 8 h F F G G G G ;.G ;.;.:.4.5.b.M.V.~ & l.-X-X-XCXCX! 0 6 A.GXFXMXsXiX( q 8 w 8 7 % O -.' oXUXUX",
"UXUX-.+X1Xs # 7 7 w 9 w 9 9 > j V V V A A A A A O.O.O.;.>.3.5.b.n.J.k 8 > @.mXCXCXCXe 7 / FXNXjXtXrXS.! 7 w 8 8 > # & _ 0.].UXUX",
"UXUXqX1X1X8.X * q 9 w 9 w 7 h B g 2 > d m m m [ ' O.+.>.2.2.l.l.n.V.w 7 9 6 N mXCX<XBXs +. X.X'.rXZ.0XQ e 9 w 7 > X ` :.^.qXUXUX",
"UXUXUXz =X&XX & 6 9 9 9 8 7 v a : 8 7 7 b d d ` ` O.O.@.2.3.l.n.B.l.> w 9 w 7 X.<X4X;XM w 9.G.Z.t.t.t.! 7 w 7 1 # o oX' oXUXUXUX",
"UXUXUX9.L #XN o > 7 w 9 w > a f 7 8 q 1 z s & s X.X.+.@.6.3.l.n.H.$.7 8 w 9 w 7 &X=Xb.* ! 5.5.r.=.t.S.! q 8 e * o ` `.:.'.UXUXUX",
"UXUXUXUXN C.C.# % 0 8 9 8 8 8 z * q 7 , ^ ! > > w #.@.2.3.3.k.n.H. .7 w 9 w 9 7 <.).v.7 7 =.$.=.y.G.|./ 7 q > & X {.-./.UXUXUXUX",
"UXUXUXUXk.c #Xl o * 0 8 w 7 > d 1 * 7 * E ^ 7 7 7 w %.@.$.k.Z.H.J.k w 9 w 9 9 > I v.x 7 7 o.%.l.n..X:X+.e 7 * o _ ^.<.].UXUXUXUX",
"UXUXUXUXeXD U x.# % > q 8 w > q s s s - e ^ > w e , N / & 3.n.H.H.7 9 w 9 w 7 k g.U > e 7 w 5.V.}.+XFX9.* > % # oXO.oXUXUXUXUXUX",
"UXUXUXUXUXl.C.C.o.X & > w 8 w > , * E < 0 ! 7 9 w e q 7 7 7 Z.H.5.6 w 9 w 9 7 S U 9 0 9 w > +.OX;X9.2.CX* & X 7.oX0.].UXUXUXUXUX",
"UXUXUXUXUXUXC.C.x.e o 6 7 e 7 9 8 q > > w ! > w 9 w 9 w 9 8 e V.+.e 9 w 9 9 > Z M > 7 w 9 w k ;X3X[.w =.% o z +X+X+XUXUXUXUXUXUX",
"UXUXUXUXUXUX8XB.x.j.; o 6 7 9 9 w 9 w > s ~ 7 9 w 9 w 9 w 9 7 Z M 7 w 9 w 8 6 M M D 7 8 w 9 7 8.M./ r & o : +X+XOXqXUXUXUXUXUXUX",
"UXUXUXUXUXUXUXj.z.z.%.# o 7 7 9 8 w 8 e ! / 7 9 9 w 9 w 9 w 8 9 7 9 9 9 8 * c c w h.8 w 9 w 8 q w 0 * + % {.+X+X'.UXUXUXUXUXUXUX",
"UXUXUXUXUXUXUXUXj.j.j.%.o o > 7 q 7 e =  .~ 0 9 w 9 w 9 w 9 w 9 s 9 9 0 9 N N > 7 a 9 9 w 9 w 7 e * # # ~.+X+XoXUXUXUXUXUXUXUXUX",
"UXUXUXUXUXUXUXUXUXj.j.6 ~ o o 6 6 7 e  . .7 7 w 9 w 9 w 9 w 9 w 9 w 9 w r j 9 e 9 e 8 w 9 w 7 7 & # # :.+X+X+XUXUXUXUXUXUXUXUXUX",
"UXUXUXUXUXUXUXUXUXUX6 ; - %.; X & > w  .w 7 w 9 w 9 w 9 w 9 w 9 9 9 w 7 q 7 9 9 w 9 w 8 w 7 7 % o : m.: /.4.UXUXUXUXUXUXUXUXUXUX",
"UXUXUXUXUXUXUXUXUXUX4 =.6 ; ..6 O % % * > e 8 w 9 w 9 w 9 w 9 r 9 w 9 w 9 w 9 w 8 w 7 e > = # X k s 1 7.1 UXUXUXUXUXUXUXUXUXUXUX",
"UXUXUXUXUXUXUXUXUXUXUX4 #.; %.- ) # o % = > 8 7 w 7 w 9 w 9 w 9 w 9 w 9 w 9 w 7 q 7 7 * & o $ -.d O.<.` UXUXUXUXUXUXUXUXUXUXUXUX",
"UXUXUXUXUXUXUXUXUXUXUXUXUXu - Z.< ( ( o o % * 6 > e 7 8 8 w 8 w 9 w q w 7 e 7 7 * * & # X d q s : ` >.UXUXUXUXUXUXUXUXUXUXUXUXUX",
"UXUXUXUXUXUXUXUXUXUXUXUXUXUXp S.; , rX] ] o X % & & > > 7 > 7 > 7 7 7 > 7 * * % & X o s _ d d n +XwXUXUXUXUXUXUXUXUXUXUXUXUXUXUX",
"UXUXUXUXUXUXUXUXUXUXUXUXUXUXUXUX*.Q t uX- kX| E o o o # # & & : % & % % # # O o $ : 1 _ :.oXO.,.UXUXUXUXUXUXUXUXUXUXUXUXUXUXUXUX",
"UXUXUXUXUXUXUXUXUXUXUXUXUXUXUXUXUX6XQ Q t { E W &.{ Q t = # o   X X # % # s , 0.s /.0.q _ [ UXUXUXUXUXUXUXUXUXUXUXUXUXUXUXUXUXUX",
"UXUXUXUXUXUXUXUXUXUXUXUXUXUXUXUXUXUXUX5X| e.W W hX< $ [ < = W s : -.1 : f 7.$ < : ` -.,.UXUXUXUXUXUXUXUXUXUXUXUXUXUXUXUXUXUXUXUX",
"UXUXUXUXUXUXUXUXUXUXUXUXUXUXUXUXUXUXUXUXUXUX9XW [ { E : < : $ :.1 b z b $ d b ' u.wXUXUXUXUXUXUXUXUXUXUXUXUXUXUXUXUXUXUXUXUXUXUX",
"UXUXUXUXUXUXUXUXUXUXUXUXUXUXUXUXUXUXUXUXUXUXUXUXUXUX5X| { < _ q d :.[ { e.9XUXUXUXUXUXUXUXUXUXUXUXUXUXUXUXUXUXUXUXUXUXUXUXUXUXUX",
"UXUXUXUXUXUXUXUXUXUXUXUXUXUXUXUXUXUXUXUXUXUXUXUXUXUXUXUXUXUXUXUXUXUXUXUXUXUXUXUXUXUXUXUXUXUXUXUXUXUXUXUXUXUXUXUXUXUXUXUXUXUXUXUX"
};
