/* XPM */
static char *_36fbcac1bef42a2a723234e4a55042a[] = {
/* columns rows colors chars-per-pixel */
"32 32 218 2 ",
"   c #675C13",
".  c #6E6314",
"X  c #726514",
"o  c #766915",
"O  c #7B6D15",
"+  c #766718",
"@  c #736C18",
"#  c #796D1A",
"$  c #777116",
"%  c #7E7115",
"&  c #767218",
"*  c #7C721B",
"=  c #7F7B18",
"-  c #806C19",
";  c #847417",
":  c #887617",
">  c #867A14",
",  c #8A7D15",
"<  c #837319",
"1  c #8B741B",
"2  c #857919",
"3  c #8A7A18",
"4  c #927E17",
"5  c #917F18",
"6  c #877521",
"7  c #8C7720",
"8  c #817A21",
"9  c #997F28",
"0  c #8E8214",
"q  c #86821B",
"w  c #8C821B",
"e  c #8D8A1C",
"r  c #938515",
"t  c #988317",
"y  c #968C16",
"u  c #9C8E16",
"i  c #93831D",
"p  c #948A1B",
"a  c #9B8C1A",
"s  c #9F9314",
"d  c #96901B",
"f  c #9E941C",
"g  c #A48D18",
"h  c #A69916",
"j  c #AA9C15",
"k  c #A3941A",
"l  c #A49B1C",
"z  c #AD9C1A",
"x  c #B0951F",
"c  c #B0991C",
"v  c #AFA414",
"b  c #AEA21E",
"n  c #B2A515",
"m  c #B6A916",
"M  c #BBAB16",
"N  c #B4A51B",
"B  c #B2A91B",
"V  c #BDAE18",
"C  c #BAB017",
"Z  c #B6B01B",
"A  c #8C8527",
"S  c #8C8728",
"D  c #998520",
"F  c #968C24",
"G  c #9E8A23",
"H  c #958529",
"J  c #9A8B2A",
"K  c #959125",
"L  c #9C9322",
"P  c #9E9922",
"I  c #949028",
"U  c #99952D",
"Y  c #9F9B30",
"T  c #A28523",
"R  c #A18529",
"E  c #A78A28",
"W  c #A39323",
"Q  c #A39C23",
"!  c #AD9F23",
"~  c #A4922E",
"^  c #AB9D28",
"/  c #BA9A25",
"(  c #B49D2A",
")  c #A48E30",
"_  c #A39132",
"`  c #A59B31",
"'  c #A89C32",
"]  c #A5A125",
"[  c #ACA324",
"{  c #AEAA23",
"}  c #A3A02C",
"|  c #ABA62F",
" . c #B2A624",
".. c #B4AD23",
"X. c #BBAF22",
"o. c #B3A72A",
"O. c #BBA52A",
"+. c #B3AB29",
"@. c #BDB524",
"#. c #B7B228",
"$. c #BBB32A",
"%. c #BDB92B",
"&. c #ABA832",
"*. c #B7A137",
"=. c #BAA535",
"-. c #B2AB36",
";. c #B9AC32",
":. c #B6A63C",
">. c #B2AD3A",
",. c #BFA83C",
"<. c #B3B135",
"1. c #BCB830",
"2. c #BBB33B",
"3. c #BDBA3D",
"4. c #C2B515",
"5. c #C3B61B",
"6. c #C4BA1B",
"7. c #CBBC1B",
"8. c #C09D2E",
"9. c #CDAE25",
"0. c #C9A42A",
"q. c #C3AE2D",
"w. c #C9AC2D",
"e. c #D0AE2A",
"r. c #C0B121",
"t. c #CEB724",
"y. c #C4B923",
"u. c #CEBF25",
"i. c #C7B62C",
"p. c #CFB62E",
"a. c #C0B82A",
"s. c #CBBC2C",
"d. c #D0B324",
"f. c #D5B329",
"g. c #D4BC2A",
"h. c #DCBB29",
"j. c #C1A635",
"k. c #C0AD33",
"l. c #C6B335",
"z. c #C9B134",
"x. c #C7BE31",
"c. c #CFBF33",
"v. c #C3B03B",
"b. c #C4B93C",
"n. c #CCBC3D",
"m. c #D3B434",
"M. c #CFC215",
"N. c #CDC31D",
"B. c #D4C616",
"V. c #D1C519",
"C. c #DACF1C",
"Z. c #DED116",
"A. c #E2D616",
"S. c #E4D81D",
"D. c #CBC225",
"F. c #C7C12D",
"G. c #CCC32D",
"H. c #CFC82E",
"J. c #D3C424",
"K. c #D0C52E",
"L. c #DED420",
"P. c #DBD129",
"I. c #CAC433",
"U. c #CCC33C",
"Y. c #D2C333",
"T. c #D4CD33",
"R. c #D2C33D",
"E. c #D2CC3C",
"W. c #D9CA3B",
"Q. c #DBD433",
"!. c #DFD832",
"~. c #D6D03C",
"^. c #DCD13E",
"/. c #E3D821",
"(. c #E4D42C",
"). c #E4DA2A",
"_. c #E2C23E",
"`. c #E1D635",
"'. c #E8DD37",
"]. c #E6DB3B",
"[. c #EBDF3F",
"{. c #ECE134",
"}. c #EEE43E",
"|. c #F1E036",
" X c #B1A240",
".X c #B9B145",
"XX c #C9B441",
"oX c #C3BB45",
"OX c #CDC344",
"+X c #CFC54D",
"@X c #D5C342",
"#X c #DFC745",
"$X c #D3CA45",
"%X c #D9CE47",
"&X c #D5C449",
"*X c #D2CA48",
"=X c #D5D244",
"-X c #DFD544",
";X c #DBD74B",
":X c #CEC750",
">X c #D5C753",
",X c #D0C855",
"<X c #DEC950",
"1X c #D6C959",
"2X c #DDCA58",
"3X c #E5C942",
"4X c #E6CB4C",
"5X c #E6DC42",
"6X c #E9DF40",
"7X c #EFD04C",
"8X c #E5DB4A",
"9X c #F2D849",
"0X c #E1CA53",
"qX c #E3CB5A",
"wX c #F4DF5C",
"eX c #F0E34B",
"rX c #F3E456",
"tX c None",
/* pixels */
"tXtXtXtXtXtXtXtXtXtXtXtXf i f f f [ G.T.tXtXtXtXtXtXtXtXtXtXtXtX",
"tXtXtXtXtXtXtXtXtXv r % $ > y h d q f l b d.g.tXtXtXtXtXtXtXtXtX",
"tXtXtXtXtXtXtXN n O > ; O o X X X o = , 4 4 O x e.tXtXtXtXtXtXtX",
"tXtXtXtXtXtXQ 0 , > X X % ; 3 3 3 2 < % o o : 3 1 E tXtXtXtXtXtX",
"tXtXtXtXtXa > 0 X O ; 3 3 3 ; < ; 3 3 3 3 ; o o < o R tXtXtXtXtX",
"tXtXtXtX, , y X < 3 3 3 3 3 2 E.;.< 3 3 3 3 3 < + 1 7 H tXtXtXtX",
"tXtXtXD.5., X ; 3 3 3 3 3 ; W W.R.< 3 3 3 3 3 , ; + 7 j.XXtXtXtX",
"tXtXJ.7.z X ; 3 > : 3 3 3 3 % Y.[.3 : 2 3 3 3 3 : ; X =.@X%XtXtX",
"tXtXh N X : 3 < W F ; 3 3 : - H.}.5Xi 2 3 3 3 3 : 3 ; # =.%XtXtX",
"tXr.u r o 3 : w s.5., ; 3 : a {.].-XJ : 3 3 3 3 3 3 : O ` >.;XtX",
"tXu N X : : % [ 5.7.7.4 : O X.`.^.$X3 : 3 3 3 3 3 3 3 : # 2.=XtX",
"tXr 3 o 3 ; , Z V 4.B.m 3 S.P.T.R.b.< 3 3 3 3 3 3 3 3 3 o Y <.tX",
"! 0 % % : > h n V 7.Z.A.m s y.G.R.R.% 3 3 3 3 3 3 3 3 3 % * } >.",
"a r o ; ; r h j v M.M.B.m h y.G.!.6X3 % % : 3 3 3 3 3 3 ; . K | ",
"u y X 3 : ; 0 % j 4.4.4.C 4.J.).'.5XOXoX.XH < 3 3 3 3 3 >   q } ",
"k k X 3 3 3 : < s n m m 4.V.S.).!.~.*X,X,X,X:.< 3 3 3 3 > . q ] ",
"l l X 3 3 3 3 < 0 h j m 7.C.L.P.E.U.OX:X1X2XqX_ < 2 3 3 3 . w { ",
" .l X 2 3 > 3 < 0 s v 6.N.N.D.D.x.U.OX&X<X0XJ qX:.< 3 3 ; . e %.",
"....; ; 3 3 3 ; ; j C 4.5.@.@.a.x.n.@X#X4Xj.H wXrX2.; 3 > X P I.",
"Q.{ 0 ; 3 3 3 % 0 v B B { { +.$.s.W z.3X7X- F eX8X:.< 3 $ $ ] ~.",
"tXP.a.o 3 3 < y y y l l Q | o.q.p.o O _.9Xi o.%Xn._ < 3 o q G.tX",
"tXD.J.o : 3 ; y X $ e w Q ^ O.w.q.< : : [. .W k.*.~ < : o { Q.tX",
"tX(.c g o 3 ; q 2 % e o 3 ( O.w./ < 2 % J.3 5 ( l.;.< X P #.!.tX",
"tXtXd.e.o ; ; < 3 8 3 < ; 3 3 m.W : ; a z % # i.].Y.% $ %.Q.tXtX",
"tXtXh.f./ + ; : < % 5 ; : 3 < W g ; - a g < ;  .c.3 . F.!.Q.tXtX",
"tXtXtXw.0.T + ; ; ; G < 3 3 3 ; ; ; 4 t r 0 3 ; < X #.Q.Q.tXtXtX",
"tXtXtXtX8.O < + # D i < 3 3 3 3 3 ; r 3 : : 2 < X e F.Q.tXtXtXtX",
"tXtXtXtXtX9 + 1 + X % > 3 3 3 3 3 3 ; 2 2 < o O w p +.tXtXtXtXtX",
"tXtXtXtXtXtX) J @ H # o % < 2 2 3 > < % X o = = Q x.tXtXtXtXtXtX",
"tXtXtXtXtXtXtXv.' S A A 8 * o . X X X $ = q P %.Q.tXtXtXtXtXtXtX",
"tXtXtXtXtXtXtXtXtX*X3.U I @ & = 2 = = $ L %.!.tXtXtXtXtXtXtXtXtX",
"tXtXtXtXtXtXtXtXtXtXtXtX3.&.K K P ] 1.I.tXtXtXtXtXtXtXtXtXtXtXtX"
};
